<mxfile host="65bd71144e">
    <diagram name="第 1 页" id="h9LqZw0f66ZD9yWMyweS">
        <mxGraphModel dx="764" dy="341" grid="1" gridSize="10" guides="1" tooltips="1" connect="1" arrows="1" fold="1" page="1" pageScale="1" pageWidth="1654" pageHeight="1169" math="0" shadow="0">
            <root>
                <mxCell id="0"/>
                <mxCell id="1" parent="0"/>
                <mxCell id="KuVQOURgtSPSj4tMggQZ-4" value="0" style="whiteSpace=wrap;html=1;aspect=fixed;fontSize=23;" parent="1" vertex="1">
                    <mxGeometry x="230" y="220" width="80" height="80" as="geometry"/>
                </mxCell>
                <mxCell id="KuVQOURgtSPSj4tMggQZ-5" value="2" style="whiteSpace=wrap;html=1;aspect=fixed;fontSize=23;" parent="1" vertex="1">
                    <mxGeometry x="790" y="220" width="80" height="80" as="geometry"/>
                </mxCell>
                <mxCell id="KuVQOURgtSPSj4tMggQZ-6" value="4" style="whiteSpace=wrap;html=1;aspect=fixed;fontSize=23;" parent="1" vertex="1">
                    <mxGeometry x="710" y="220" width="80" height="80" as="geometry"/>
                </mxCell>
                <mxCell id="KuVQOURgtSPSj4tMggQZ-7" value="4" style="whiteSpace=wrap;html=1;aspect=fixed;fontSize=23;" parent="1" vertex="1">
                    <mxGeometry x="630" y="220" width="80" height="80" as="geometry"/>
                </mxCell>
                <mxCell id="KuVQOURgtSPSj4tMggQZ-8" value="4" style="whiteSpace=wrap;html=1;aspect=fixed;fontSize=23;" parent="1" vertex="1">
                    <mxGeometry x="550" y="220" width="80" height="80" as="geometry"/>
                </mxCell>
                <mxCell id="KuVQOURgtSPSj4tMggQZ-9" value="1" style="whiteSpace=wrap;html=1;aspect=fixed;fontSize=23;" parent="1" vertex="1">
                    <mxGeometry x="310" y="220" width="80" height="80" as="geometry"/>
                </mxCell>
                <mxCell id="KuVQOURgtSPSj4tMggQZ-10" value="3" style="whiteSpace=wrap;html=1;aspect=fixed;fontSize=23;" parent="1" vertex="1">
                    <mxGeometry x="390" y="220" width="80" height="80" as="geometry"/>
                </mxCell>
                <mxCell id="KuVQOURgtSPSj4tMggQZ-11" value="0" style="whiteSpace=wrap;html=1;aspect=fixed;fontSize=23;" parent="1" vertex="1">
                    <mxGeometry x="470" y="220" width="80" height="80" as="geometry"/>
                </mxCell>
                <mxCell id="KuVQOURgtSPSj4tMggQZ-12" value="" style="endArrow=classic;html=1;rounded=0;" parent="1" edge="1">
                    <mxGeometry width="50" height="50" relative="1" as="geometry">
                        <mxPoint x="830" y="110" as="sourcePoint"/>
                        <mxPoint x="829.5" y="190" as="targetPoint"/>
                    </mxGeometry>
                </mxCell>
                <mxCell id="KuVQOURgtSPSj4tMggQZ-13" value="" style="endArrow=classic;html=1;rounded=0;" parent="1" edge="1">
                    <mxGeometry width="50" height="50" relative="1" as="geometry">
                        <mxPoint x="750" y="400" as="sourcePoint"/>
                        <mxPoint x="749.5" y="320" as="targetPoint"/>
                        <Array as="points">
                            <mxPoint x="749.5" y="390"/>
                        </Array>
                    </mxGeometry>
                </mxCell>
                <mxCell id="KuVQOURgtSPSj4tMggQZ-14" value="0" style="whiteSpace=wrap;html=1;aspect=fixed;fontSize=23;" parent="1" vertex="1">
                    <mxGeometry x="240" y="600" width="80" height="80" as="geometry"/>
                </mxCell>
                <mxCell id="KuVQOURgtSPSj4tMggQZ-15" value="6" style="whiteSpace=wrap;html=1;aspect=fixed;fontSize=23;" parent="1" vertex="1">
                    <mxGeometry x="800" y="600" width="80" height="80" as="geometry"/>
                </mxCell>
                <mxCell id="KuVQOURgtSPSj4tMggQZ-16" value="5" style="whiteSpace=wrap;html=1;aspect=fixed;fontSize=23;" parent="1" vertex="1">
                    <mxGeometry x="720" y="600" width="80" height="80" as="geometry"/>
                </mxCell>
                <mxCell id="KuVQOURgtSPSj4tMggQZ-17" value="6" style="whiteSpace=wrap;html=1;aspect=fixed;fontSize=23;" parent="1" vertex="1">
                    <mxGeometry x="640" y="600" width="80" height="80" as="geometry"/>
                </mxCell>
                <mxCell id="KuVQOURgtSPSj4tMggQZ-18" value="4" style="whiteSpace=wrap;html=1;aspect=fixed;fontSize=23;" parent="1" vertex="1">
                    <mxGeometry x="560" y="600" width="80" height="80" as="geometry"/>
                </mxCell>
                <mxCell id="KuVQOURgtSPSj4tMggQZ-19" value="1" style="whiteSpace=wrap;html=1;aspect=fixed;fontSize=23;" parent="1" vertex="1">
                    <mxGeometry x="320" y="600" width="80" height="80" as="geometry"/>
                </mxCell>
                <mxCell id="KuVQOURgtSPSj4tMggQZ-20" value="2" style="whiteSpace=wrap;html=1;aspect=fixed;fontSize=23;" parent="1" vertex="1">
                    <mxGeometry x="400" y="600" width="80" height="80" as="geometry"/>
                </mxCell>
                <mxCell id="KuVQOURgtSPSj4tMggQZ-21" value="3" style="whiteSpace=wrap;html=1;aspect=fixed;fontSize=23;" parent="1" vertex="1">
                    <mxGeometry x="480" y="600" width="80" height="80" as="geometry"/>
                </mxCell>
                <mxCell id="KuVQOURgtSPSj4tMggQZ-22" value="" style="endArrow=classic;html=1;rounded=0;" parent="1" edge="1">
                    <mxGeometry width="50" height="50" relative="1" as="geometry">
                        <mxPoint x="840" y="505" as="sourcePoint"/>
                        <mxPoint x="839.5" y="585" as="targetPoint"/>
                    </mxGeometry>
                </mxCell>
                <mxCell id="KuVQOURgtSPSj4tMggQZ-23" value="" style="endArrow=classic;html=1;rounded=0;" parent="1" edge="1">
                    <mxGeometry width="50" height="50" relative="1" as="geometry">
                        <mxPoint x="760" y="780" as="sourcePoint"/>
                        <mxPoint x="759.5" y="700" as="targetPoint"/>
                        <Array as="points">
                            <mxPoint x="759.5" y="770"/>
                        </Array>
                    </mxGeometry>
                </mxCell>
            </root>
        </mxGraphModel>
    </diagram>
</mxfile>